<svg xmlns="http://www.w3.org/2000/svg" xmlns:xlink="http://www.w3.org/1999/xlink" width="1260" height="1122.08"><rect width="1260" height="1122.08" rx="5" ry="5" class="a"/><svg y="0%" x="0%"><circle cx="20" cy="20" r="6" fill="#ff5f58"/><circle cx="40" cy="20" r="6" fill="#ffbd2e"/><circle cx="60" cy="20" r="6" fill="#18c132"/></svg><svg height="1042.08" viewBox="0 0 120 104.208" width="1200" x="25" xmlns="http://www.w3.org/2000/svg" xmlns:xlink="http://www.w3.org/1999/xlink" y="60"><style>@keyframes h{0%{transform:translateX(0)}11.1%{transform:translateX(-120px)}22.2%{transform:translateX(-240px)}33.3%{transform:translateX(-360px)}44.4%{transform:translateX(-480px)}55.6%{transform:translateX(-600px)}66.7%{transform:translateX(-720px)}77.8%{transform:translateX(-840px)}88.9%{transform:translateX(-960px)}to{transform:translateX(-1080px)}}.a{fill:#282d35}.f{fill:#b9c0cb;white-space:pre}</style><g font-family="Monaco,Consolas,Menlo,'Bitstream Vera Sans Mono','Powerline Symbols',monospace" font-size="1.67"><defs><symbol id="1"><text y="1.67" class="f">$</text><text x="2.004" y="1.67" class="f">kubectl</text><text x="10.02" y="1.67" class="f">hpa</text><text x="14.028" y="1.67" class="f">status</text><text x="21.042" y="1.67" class="f">doctor</text><text x="28.056" y="1.67" class="f">api</text><text x="32.064" y="1.67" class="f">-n</text><text x="35.07" y="1.67" class="f">production</text></symbol><symbol id="2"><text x="45.09" y="1.67" class="f">HPA</text><text x="49.098" y="1.67" class="f">production/api</text></symbol><symbol id="3"><text x="63.126" y="1.67" class="f">Target:</text><text x="71.142" y="1.67" class="f">Deployment/api</text></symbol><symbol id="4"><text x="85.17" y="1.67" class="f">Replicas:</text><text x="95.19" y="1.67" class="f">current=2</text><text x="105.21" y="1.67" class="f">desired=2</text><text x="115.23" y="1.67" class="f">min=1</text></symbol><symbol id="5"><text x="1.002" y="1.67" class="f">max=10</text></symbol><symbol id="6"><text x="7.014" y="1.67" class="f">Health</text><text x="14.028" y="1.67" class="f">score:</text><text x="21.042" y="1.67" class="f">🔴</text><text x="24.048" y="1.67" class="f">ERROR</text><text x="30.06" y="1.67" class="f">55/100</text></symbol><symbol id="7"><text x="36.072" y="1.67" class="f">Summary:</text><text x="45.09" y="1.67" class="f">HPA</text><text x="49.098" y="1.67" class="f">cannot</text><text x="56.112" y="1.67" class="f">currently</text><text x="66.132" y="1.67" class="f">compute</text><text x="74.148" y="1.67" class="f">a</text><text x="76.152" y="1.67" class="f">scaling</text><text x="84.168" y="1.67" class="f">recommendation</text><text x="99.198" y="1.67" class="f">from</text><text x="104.208" y="1.67" class="f">metrics.</text></symbol><symbol id="8"><text x="112.224" y="1.67" class="f">Metrics</text></symbol><symbol id="9"><text y="1.67" class="f">Diagnostics:</text></symbol><symbol id="10"><text x="14.028" y="1.67" class="f">✗</text><text x="16.032" y="1.67" class="f">Resource</text><text x="25.05" y="1.67" class="f">cpu:</text></symbol><symbol id="11"><text x="33.066" y="1.67" class="f">status:</text><text x="41.082" y="1.67" class="f">Unavailable</text></symbol><symbol id="12"><text x="56.112" y="1.67" class="f">source:</text><text x="64.128" y="1.67" class="f">resource.metrics.k8s.io</text></symbol><symbol id="13"><text x="91.182" y="1.67" class="f">apiservice:</text><text x="103.206" y="1.67" class="f">available</text><text x="113.226" y="1.67" class="f">(v1beta</text></symbol><symbol id="14"><text y="1.67" class="f">1.metrics.k8s.io)</text></symbol><symbol id="15"><text x="21.042" y="1.67" class="f">last</text><text x="26.052" y="1.67" class="f">HPA</text><text x="30.06" y="1.67" class="f">event:</text><text x="37.074" y="1.67" class="f">FailedGetResourceMetric</text><text x="61.122" y="1.67" class="f">2m14s</text><text x="67.134" y="1.67" class="f">ago</text></symbol><symbol id="16"><text x="74.148" y="1.67" class="f">likely</text><text x="81.162" y="1.67" class="f">cause:</text><text x="88.176" y="1.67" class="f">metrics-server</text><text x="103.206" y="1.67" class="f">is</text><text x="106.212" y="1.67" class="f">not</text><text x="110.22" y="1.67" class="f">returning</text></symbol><symbol id="17"><text y="1.67" class="f">CPU</text><text x="4.008" y="1.67" class="f">metrics</text><text x="12.024" y="1.67" class="f">for</text><text x="16.032" y="1.67" class="f">target</text><text x="23.046" y="1.67" class="f">pods</text></symbol><symbol id="18"><text x="31.062" y="1.67" class="f">next</text><text x="36.072" y="1.67" class="f">checks:</text></symbol><symbol id="19"><text x="49.098" y="1.67" class="f">kubectl</text><text x="57.114" y="1.67" class="f">top</text><text x="61.122" y="1.67" class="f">pods</text><text x="66.132" y="1.67" class="f">-n</text><text x="69.138" y="1.67" class="f">production</text></symbol><symbol id="20"><text x="85.17" y="1.67" class="f">kubectl</text><text x="93.186" y="1.67" class="f">get</text><text x="97.194" y="1.67" class="f">deployment</text><text x="108.216" y="1.67" class="f">metrics-serv</text></symbol><symbol id="21"><text y="1.67" class="f">er</text><text x="3.006" y="1.67" class="f">-n</text><text x="6.012" y="1.67" class="f">kube-system</text></symbol><symbol id="22"><text x="23.046" y="1.67" class="f">kubectl</text><text x="31.062" y="1.67" class="f">logs</text><text x="36.072" y="1.67" class="f">-n</text><text x="39.078" y="1.67" class="f">kube-system</text><text x="51.102" y="1.67" class="f">-l</text><text x="54.108" y="1.67" class="f">app=metrics-server</text><text x="73.146" y="1.67" class="f">--tail=20</text></symbol><symbol id="23"><text x="82.164" y="1.67" class="f">Metrics</text><text x="90.18" y="1.67" class="f">Freshness:</text></symbol><symbol id="24"><text x="102.204" y="1.67" class="f">!</text><text x="104.208" y="1.67" class="f">cpu/resource:</text></symbol><symbol id="25"><text x="1.002" y="1.67" class="f">status:</text><text x="9.018" y="1.67" class="f">Stale</text></symbol><symbol id="26"><text x="18.036" y="1.67" class="f">source:</text><text x="26.052" y="1.67" class="f">resource.metrics.k8s.io</text></symbol><symbol id="27"><text x="53.106" y="1.67" class="f">apiservice:</text><text x="65.13" y="1.67" class="f">available</text><text x="75.15" y="1.67" class="f">(v1beta1.metrics.k8s.io)</text></symbol><symbol id="28"><text x="103.206" y="1.67" class="f">last</text><text x="108.216" y="1.67" class="f">HPA</text><text x="112.224" y="1.67" class="f">event:</text><text x="119.238" y="1.67" class="f">F</text></symbol><symbol id="29"><text y="1.67" class="f">ailedGetResourceMetric</text><text x="23.046" y="1.67" class="f">2m14s</text><text x="29.058" y="1.67" class="f">ago</text></symbol><symbol id="30"><text x="36.072" y="1.67" class="f">likely</text><text x="43.086" y="1.67" class="f">cause:</text><text x="50.1" y="1.67" class="f">metrics-server</text><text x="65.13" y="1.67" class="f">scrape</text><text x="72.144" y="1.67" class="f">failure</text><text x="80.16" y="1.67" class="f">or</text><text x="83.166" y="1.67" class="f">pod</text><text x="87.174" y="1.67" class="f">not</text><text x="91.182" y="1.67" class="f">ready</text></symbol><symbol id="31"><text x="96.192" y="1.67" class="f">Target</text><text x="103.206" y="1.67" class="f">Workload:</text></symbol><symbol id="32"><text x="114.228" y="1.67" class="f">Deploy</text></symbol><symbol id="33"><text y="1.67" class="f">ment/api:</text><text x="10.02" y="1.67" class="f">2/2</text><text x="14.028" y="1.67" class="f">pods</text><text x="19.038" y="1.67" class="f">ready,</text><text x="26.052" y="1.67" class="f">0</text><text x="28.056" y="1.67" class="f">pending,</text><text x="37.074" y="1.67" class="f">0</text><text x="39.078" y="1.67" class="f">crashing</text></symbol><symbol id="34"><text x="47.094" y="1.67" class="f">Pod</text><text x="51.102" y="1.67" class="f">State:</text></symbol><symbol id="35"><text x="59.118" y="1.67" class="f">✓</text><text x="61.122" y="1.67" class="f">All</text><text x="65.13" y="1.67" class="f">pods</text><text x="70.14" y="1.67" class="f">are</text><text x="74.148" y="1.67" class="f">Running</text><text x="82.164" y="1.67" class="f">and</text><text x="86.172" y="1.67" class="f">Ready</text></symbol><symbol id="36"><text x="91.182" y="1.67" class="f">Resource</text><text x="100.2" y="1.67" class="f">Requests:</text></symbol><symbol id="37"><text x="111.222" y="1.67" class="f">✓</text><text x="113.226" y="1.67" class="f">Contain</text></symbol><symbol id="38"><text y="1.67" class="f">er</text><text x="3.006" y="1.67" class="f">&apos;api&apos;</text><text x="9.018" y="1.67" class="f">has</text><text x="13.026" y="1.67" class="f">cpu</text><text x="17.034" y="1.67" class="f">request:</text><text x="26.052" y="1.67" class="f">100m</text></symbol><symbol id="39"><text x="32.064" y="1.67" class="f">✓</text><text x="34.068" y="1.67" class="f">Container</text><text x="44.088" y="1.67" class="f">&apos;api&apos;</text><text x="50.1" y="1.67" class="f">has</text><text x="54.108" y="1.67" class="f">memory</text><text x="61.122" y="1.67" class="f">request:</text><text x="70.14" y="1.67" class="f">128Mi</text></symbol><symbol id="40"><text x="75.15" y="1.67" class="f">Recent</text><text x="82.164" y="1.67" class="f">Events</text><text x="89.178" y="1.67" class="f">(last</text><text x="95.19" y="1.67" class="f">5):</text></symbol><symbol id="41"><text x="100.2" y="1.67" class="f">2m14s</text><text x="107.214" y="1.67" class="f">Warning</text><text x="116.232" y="1.67" class="f">Fail</text></symbol><symbol id="42"><text y="1.67" class="f">edGetResourceMetric</text><text x="21.042" y="1.67" class="f">unable</text><text x="28.056" y="1.67" class="f">to</text><text x="31.062" y="1.67" class="f">get</text><text x="35.07" y="1.67" class="f">metric</text><text x="42.084" y="1.67" class="f">cpu</text></symbol><symbol id="43"><text x="47.094" y="1.67" class="f">5m30s</text><text x="54.108" y="1.67" class="f">Warning</text><text x="63.126" y="1.67" class="f">FailedGetResourceMetric</text><text x="88.176" y="1.67" class="f">unable</text><text x="95.19" y="1.67" class="f">to</text><text x="98.196" y="1.67" class="f">get</text><text x="102.204" y="1.67" class="f">metric</text><text x="109.218" y="1.67" class="f">cpu</text></symbol><symbol id="44"><text x="114.228" y="1.67" class="f">8m12s</text></symbol><symbol id="45"><text x="1.002" y="1.67" class="f">Normal</text><text x="10.02" y="1.67" class="f">SuccessfulRescale</text><text x="36.072" y="1.67" class="f">New</text><text x="40.08" y="1.67" class="f">size:</text><text x="46.092" y="1.67" class="f">2</text></symbol><symbol id="a"><path fill="transparent" d="M0 0h120v48H0z"/></symbol></defs><path class="a" d="M0 0h120v104.208H0z"/><g style="animation-duration:.9s;animation-iteration-count:infinite;animation-name:h;animation-timing-function:steps(1,end)"><svg width="1200"><svg><use xlink:href="#a"/></svg><svg x="120"><use xlink:href="#a"/><use xlink:href="#1"/></svg><svg x="240"><use xlink:href="#a"/><use xlink:href="#1"/><use xlink:href="#2" y="4.342"/><use xlink:href="#3" y="6.513"/><use xlink:href="#4" y="8.684"/><use xlink:href="#5" y="10.855"/><use xlink:href="#6" y="13.026"/><use xlink:href="#7" y="17.368"/></svg><svg x="360"><use xlink:href="#a"/><use xlink:href="#1"/><use xlink:href="#2" y="4.342"/><use xlink:href="#3" y="6.513"/><use xlink:href="#4" y="8.684"/><use xlink:href="#5" y="10.855"/><use xlink:href="#6" y="13.026"/><use xlink:href="#7" y="17.368"/><use xlink:href="#8" y="21.71"/><use xlink:href="#9" y="23.881"/><use xlink:href="#10" y="26.052"/><use xlink:href="#11" y="28.223"/><use xlink:href="#12" y="30.394"/><use xlink:href="#13" y="32.565"/><use xlink:href="#14" y="34.736"/><use xlink:href="#15" y="36.907"/><use xlink:href="#16" y="39.078"/><use xlink:href="#17" y="41.249"/><use xlink:href="#18" y="43.42"/><use xlink:href="#19" y="45.591"/><use xlink:href="#20" y="47.762"/><use xlink:href="#21" y="49.933"/><use xlink:href="#22" y="52.104"/></svg><svg x="480"><use xlink:href="#a"/><use xlink:href="#1"/><use xlink:href="#2" y="4.342"/><use xlink:href="#3" y="6.513"/><use xlink:href="#4" y="8.684"/><use xlink:href="#5" y="10.855"/><use xlink:href="#6" y="13.026"/><use xlink:href="#7" y="17.368"/><use xlink:href="#8" y="21.71"/><use xlink:href="#9" y="23.881"/><use xlink:href="#10" y="26.052"/><use xlink:href="#11" y="28.223"/><use xlink:href="#12" y="30.394"/><use xlink:href="#13" y="32.565"/><use xlink:href="#14" y="34.736"/><use xlink:href="#15" y="36.907"/><use xlink:href="#16" y="39.078"/><use xlink:href="#17" y="41.249"/><use xlink:href="#18" y="43.42"/><use xlink:href="#19" y="45.591"/><use xlink:href="#20" y="47.762"/><use xlink:href="#21" y="49.933"/><use xlink:href="#22" y="52.104"/><use xlink:href="#23" y="56.446"/><use xlink:href="#24" y="58.617"/><use xlink:href="#25" y="62.959"/><use xlink:href="#26" y="65.13"/><use xlink:href="#27" y="67.301"/><use xlink:href="#28" y="69.472"/><use xlink:href="#29" y="71.643"/><use xlink:href="#30" y="73.814"/></svg><svg x="600"><use xlink:href="#a"/><use xlink:href="#1"/><use xlink:href="#2" y="4.342"/><use xlink:href="#3" y="6.513"/><use xlink:href="#4" y="8.684"/><use xlink:href="#5" y="10.855"/><use xlink:href="#6" y="13.026"/><use xlink:href="#7" y="17.368"/><use xlink:href="#8" y="21.71"/><use xlink:href="#9" y="23.881"/><use xlink:href="#10" y="26.052"/><use xlink:href="#11" y="28.223"/><use xlink:href="#12" y="30.394"/><use xlink:href="#13" y="32.565"/><use xlink:href="#14" y="34.736"/><use xlink:href="#15" y="36.907"/><use xlink:href="#16" y="39.078"/><use xlink:href="#17" y="41.249"/><use xlink:href="#18" y="43.42"/><use xlink:href="#19" y="45.591"/><use xlink:href="#20" y="47.762"/><use xlink:href="#21" y="49.933"/><use xlink:href="#22" y="52.104"/><use xlink:href="#23" y="56.446"/><use xlink:href="#24" y="58.617"/><use xlink:href="#25" y="62.959"/><use xlink:href="#26" y="65.13"/><use xlink:href="#27" y="67.301"/><use xlink:href="#28" y="69.472"/><use xlink:href="#29" y="71.643"/><use xlink:href="#30" y="73.814"/><use xlink:href="#31" y="78.156"/><use xlink:href="#32" y="80.327"/><use xlink:href="#33" y="82.498"/></svg><svg x="720"><use xlink:href="#a"/><use xlink:href="#1"/><use xlink:href="#2" y="4.342"/><use xlink:href="#3" y="6.513"/><use xlink:href="#4" y="8.684"/><use xlink:href="#5" y="10.855"/><use xlink:href="#6" y="13.026"/><use xlink:href="#7" y="17.368"/><use xlink:href="#8" y="21.71"/><use xlink:href="#9" y="23.881"/><use xlink:href="#10" y="26.052"/><use xlink:href="#11" y="28.223"/><use xlink:href="#12" y="30.394"/><use xlink:href="#13" y="32.565"/><use xlink:href="#14" y="34.736"/><use xlink:href="#15" y="36.907"/><use xlink:href="#16" y="39.078"/><use xlink:href="#17" y="41.249"/><use xlink:href="#18" y="43.42"/><use xlink:href="#19" y="45.591"/><use xlink:href="#20" y="47.762"/><use xlink:href="#21" y="49.933"/><use xlink:href="#22" y="52.104"/><use xlink:href="#23" y="56.446"/><use xlink:href="#24" y="58.617"/><use xlink:href="#25" y="62.959"/><use xlink:href="#26" y="65.13"/><use xlink:href="#27" y="67.301"/><use xlink:href="#28" y="69.472"/><use xlink:href="#29" y="71.643"/><use xlink:href="#30" y="73.814"/><use xlink:href="#31" y="78.156"/><use xlink:href="#32" y="80.327"/><use xlink:href="#33" y="82.498"/><use xlink:href="#34" y="86.84"/><use xlink:href="#35" y="89.011"/></svg><svg x="840"><use xlink:href="#a"/><use xlink:href="#2" y="2.171"/><use xlink:href="#3" y="4.342"/><use xlink:href="#4" y="6.513"/><use xlink:href="#5" y="8.684"/><use xlink:href="#6" y="10.855"/><use xlink:href="#7" y="15.197"/><use xlink:href="#8" y="19.539"/><use xlink:href="#9" y="21.71"/><use xlink:href="#10" y="23.881"/><use xlink:href="#11" y="26.052"/><use xlink:href="#12" y="28.223"/><use xlink:href="#13" y="30.394"/><use xlink:href="#14" y="32.565"/><use xlink:href="#15" y="34.736"/><use xlink:href="#16" y="36.907"/><use xlink:href="#17" y="39.078"/><use xlink:href="#18" y="41.249"/><use xlink:href="#19" y="43.42"/><use xlink:href="#20" y="45.591"/><use xlink:href="#21" y="47.762"/><use xlink:href="#22" y="49.933"/><use xlink:href="#23" y="54.275"/><use xlink:href="#24" y="56.446"/><use xlink:href="#25" y="60.788"/><use xlink:href="#26" y="62.959"/><use xlink:href="#27" y="65.13"/><use xlink:href="#28" y="67.301"/><use xlink:href="#29" y="69.472"/><use xlink:href="#30" y="71.643"/><use xlink:href="#31" y="75.985"/><use xlink:href="#32" y="78.156"/><use xlink:href="#33" y="80.327"/><use xlink:href="#34" y="84.669"/><use xlink:href="#35" y="86.84"/><use xlink:href="#36" y="91.182"/><use xlink:href="#37" y="93.353"/><use xlink:href="#38" y="95.524"/><use xlink:href="#39" y="97.695"/></svg><svg x="960"><use xlink:href="#a"/><use xlink:href="#7" y="2.171"/><use xlink:href="#8" y="6.513"/><use xlink:href="#9" y="8.684"/><use xlink:href="#10" y="10.855"/><use xlink:href="#11" y="13.026"/><use xlink:href="#12" y="15.197"/><use xlink:href="#13" y="17.368"/><use xlink:href="#14" y="19.539"/><use xlink:href="#15" y="21.71"/><use xlink:href="#16" y="23.881"/><use xlink:href="#17" y="26.052"/><use xlink:href="#18" y="28.223"/><use xlink:href="#19" y="30.394"/><use xlink:href="#20" y="32.565"/><use xlink:href="#21" y="34.736"/><use xlink:href="#22" y="36.907"/><use xlink:href="#23" y="41.249"/><use xlink:href="#24" y="43.42"/><use xlink:href="#25" y="47.762"/><use xlink:href="#26" y="49.933"/><use xlink:href="#27" y="52.104"/><use xlink:href="#28" y="54.275"/><use xlink:href="#29" y="56.446"/><use xlink:href="#30" y="58.617"/><use xlink:href="#31" y="62.959"/><use xlink:href="#32" y="65.13"/><use xlink:href="#33" y="67.301"/><use xlink:href="#34" y="71.643"/><use xlink:href="#35" y="73.814"/><use xlink:href="#36" y="78.156"/><use xlink:href="#37" y="80.327"/><use xlink:href="#38" y="82.498"/><use xlink:href="#39" y="84.669"/><use xlink:href="#40" y="89.011"/><use xlink:href="#41" y="91.182"/><use xlink:href="#42" y="93.353"/><use xlink:href="#43" y="95.524"/><use xlink:href="#44" y="97.695"/><use xlink:href="#45" y="99.866"/></svg><svg x="1080"><use xlink:href="#a"/><use xlink:href="#20"/><use xlink:href="#21" y="2.171"/><use xlink:href="#22" y="4.342"/><use xlink:href="#23" y="8.684"/><use xlink:href="#24" y="10.855"/><use xlink:href="#25" y="15.197"/><use xlink:href="#26" y="17.368"/><use xlink:href="#27" y="19.539"/><use xlink:href="#28" y="21.71"/><use xlink:href="#29" y="23.881"/><use xlink:href="#30" y="26.052"/><use xlink:href="#31" y="30.394"/><use xlink:href="#32" y="32.565"/><use xlink:href="#33" y="34.736"/><use xlink:href="#34" y="39.078"/><use xlink:href="#35" y="41.249"/><use xlink:href="#36" y="45.591"/><use xlink:href="#37" y="47.762"/><use xlink:href="#38" y="49.933"/><use xlink:href="#39" y="52.104"/><use xlink:href="#40" y="56.446"/><use xlink:href="#41" y="58.617"/><use xlink:href="#42" y="60.788"/><use xlink:href="#43" y="62.959"/><use xlink:href="#44" y="65.13"/><use xlink:href="#45" y="67.301"/><text x="47.094" y="73.313" class="f">Interpretation:</text><text x="64.128" y="75.484" class="f">-</text><text x="66.132" y="75.484" class="f">[confidence:</text><text x="79.158" y="75.484" class="f">high]</text><text x="85.17" y="75.484" class="f">ScalingActive=False</text><text x="105.21" y="75.484" class="f">indicates</text><text x="115.23" y="75.484" class="f">the</text><text x="119.238" y="75.484" class="f">H</text><text y="77.655" class="f">PA</text><text x="3.006" y="77.655" class="f">controller</text><text x="14.028" y="77.655" class="f">cannot</text><text x="21.042" y="77.655" class="f">read</text><text x="26.052" y="77.655" class="f">metrics.</text><text x="36.072" y="79.826" class="f">-</text><text x="38.076" y="79.826" class="f">[confidence:</text><text x="51.102" y="79.826" class="f">high]</text><text x="57.114" y="79.826" class="f">metrics-server</text><text x="72.144" y="79.826" class="f">APIService</text><text x="83.166" y="79.826" class="f">is</text><text x="86.172" y="79.826" class="f">available,</text><text x="97.194" y="79.826" class="f">but</text><text x="101.202" y="79.826" class="f">CPU</text><text x="105.21" y="79.826" class="f">metrics</text><text x="113.226" y="79.826" class="f">are</text><text x="117.234" y="79.826" class="f">not</text><text x="1.002" y="81.997" class="f">being</text><text x="7.014" y="81.997" class="f">returned</text><text x="16.032" y="81.997" class="f">for</text><text x="20.04" y="81.997" class="f">the</text><text x="24.048" y="81.997" class="f">target</text><text x="31.062" y="81.997" class="f">pods.</text><text x="38.076" y="84.168" class="f">-</text><text x="40.08" y="84.168" class="f">[confidence:</text><text x="53.106" y="84.168" class="f">medium]</text><text x="61.122" y="84.168" class="f">Recent</text><text x="68.136" y="84.168" class="f">FailedGetResourceMetric</text><text x="92.184" y="84.168" class="f">events</text><text x="99.198" y="84.168" class="f">confirm</text><text x="107.214" y="84.168" class="f">ongoing</text><text x="115.23" y="84.168" class="f">metri</text><text y="86.339" class="f">c</text><text x="2.004" y="86.339" class="f">retrieval</text><text x="12.024" y="86.339" class="f">failure.</text><text x="20.04" y="90.681" class="f">Recommended</text><text x="32.064" y="90.681" class="f">actions:</text><text x="42.084" y="92.852" class="f">-</text><text x="44.088" y="92.852" class="f">Verify</text><text x="51.102" y="92.852" class="f">metrics-server</text><text x="66.132" y="92.852" class="f">is</text><text x="69.138" y="92.852" class="f">running:</text><text x="78.156" y="92.852" class="f">kubectl</text><text x="86.172" y="92.852" class="f">get</text><text x="90.18" y="92.852" class="f">pods</text><text x="95.19" y="92.852" class="f">-n</text><text x="98.196" y="92.852" class="f">kube-system</text><text x="110.22" y="92.852" class="f">-l</text><text x="113.226" y="92.852" class="f">app=met</text><text y="95.023" class="f">rics-server</text><text x="13.026" y="97.194" class="f">-</text><text x="15.03" y="97.194" class="f">Check</text><text x="21.042" y="97.194" class="f">pod</text><text x="25.05" y="97.194" class="f">resource</text><text x="34.068" y="97.194" class="f">requests</text><text x="43.086" y="97.194" class="f">match</text><text x="49.098" y="97.194" class="f">HPA</text><text x="53.106" y="97.194" class="f">target:</text><text x="61.122" y="97.194" class="f">kubectl</text><text x="69.138" y="97.194" class="f">get</text><text x="73.146" y="97.194" class="f">pod</text><text x="77.154" y="97.194" class="f">-n</text><text x="80.16" y="97.194" class="f">production</text><text x="91.182" y="97.194" class="f">-l</text><text x="94.188" y="97.194" class="f">app=api</text><text x="102.204" y="97.194" class="f">-o</text><text x="105.21" y="97.194" class="f">jsonpath=&apos;{.ite</text><text y="99.365" class="f">ms[*].spec.containers[*].resources.requests}&apos;</text><text x="47.094" y="101.536" class="f">-</text><text x="49.098" y="101.536" class="f">Inspect</text><text x="57.114" y="101.536" class="f">metrics-server</text><text x="72.144" y="101.536" class="f">logs</text><text x="77.154" y="101.536" class="f">for</text><text x="81.162" y="101.536" class="f">scrape</text><text x="88.176" y="101.536" class="f">errors.</text></svg></svg></g></g></svg></svg>