<svg xmlns="http://www.w3.org/2000/svg" xmlns:xlink="http://www.w3.org/1999/xlink" width="1060" height="731.3"><rect width="1060" height="731.3" rx="5" ry="5" class="a"/><svg y="0%" x="0%"><circle cx="20" cy="20" r="6" fill="#ff5f58"/><circle cx="40" cy="20" r="6" fill="#ffbd2e"/><circle cx="60" cy="20" r="6" fill="#18c132"/></svg><svg height="651.3" viewBox="0 0 100 65.13" width="1000" x="25" xmlns="http://www.w3.org/2000/svg" xmlns:xlink="http://www.w3.org/1999/xlink" y="60"><style>@keyframes h{0%{transform:translateX(0)}14.3%{transform:translateX(-100px)}28.6%{transform:translateX(-200px)}42.9%{transform:translateX(-300px)}57.1%{transform:translateX(-400px)}71.4%{transform:translateX(-500px)}85.7%{transform:translateX(-600px)}to{transform:translateX(-700px)}}.a{fill:#282d35}.f{fill:#b9c0cb;white-space:pre}</style><g font-family="Monaco,Consolas,Menlo,'Bitstream Vera Sans Mono','Powerline Symbols',monospace" font-size="1.67"><defs><symbol id="1"><text y="1.67" class="f">$</text><text x="2.004" y="1.67" class="f">kubectl</text><text x="10.02" y="1.67" class="f">hpa</text><text x="14.028" y="1.67" class="f">status</text><text x="21.042" y="1.67" class="f">recommend</text><text x="31.062" y="1.67" class="f">web</text><text x="35.07" y="1.67" class="f">-n</text><text x="38.076" y="1.67" class="f">production</text></symbol><symbol id="2"><text x="48.096" y="1.67" class="f">HPA</text><text x="52.104" y="1.67" class="f">production/web</text></symbol><symbol id="3"><text x="66.132" y="1.67" class="f">Target:</text><text x="74.148" y="1.67" class="f">Deployment/web</text></symbol><symbol id="4"><text x="88.176" y="1.67" class="f">Compliance</text><text x="99.198" y="1.67" class="f">S</text></symbol><symbol id="5"><text y="1.67" class="f">core:</text><text x="6.012" y="1.67" class="f">70/100</text></symbol><symbol id="6"><text x="12.024" y="1.67" class="f">Summary:</text><text x="21.042" y="1.67" class="f">Found</text><text x="27.054" y="1.67" class="f">1</text><text x="29.058" y="1.67" class="f">critical,</text><text x="39.078" y="1.67" class="f">2</text><text x="41.082" y="1.67" class="f">warnings,</text><text x="51.102" y="1.67" class="f">0</text><text x="53.106" y="1.67" class="f">informational</text><text x="67.134" y="1.67" class="f">findings</text></symbol><symbol id="7"><text x="75.15" y="1.67" class="f">Audit</text><text x="81.162" y="1.67" class="f">Findings:</text></symbol><symbol id="8"><text x="92.184" y="1.67" class="f">[CRITICA</text></symbol><symbol id="9"><text y="1.67" class="f">L]</text><text x="3.006" y="1.67" class="f">minReplicas</text><text x="15.03" y="1.67" class="f">is</text><text x="18.036" y="1.67" class="f">set</text><text x="22.044" y="1.67" class="f">to</text><text x="25.05" y="1.67" class="f">0</text><text x="27.054" y="1.67" class="f">without</text><text x="35.07" y="1.67" class="f">scale-to-zero</text><text x="49.098" y="1.67" class="f">safeguards</text></symbol><symbol id="10"><text x="63.126" y="1.67" class="f">Impact:</text><text x="71.142" y="1.67" class="f">Pods</text><text x="76.152" y="1.67" class="f">may</text><text x="80.16" y="1.67" class="f">fail</text><text x="85.17" y="1.67" class="f">to</text><text x="88.176" y="1.67" class="f">start</text><text x="94.188" y="1.67" class="f">when</text><text x="99.198" y="1.67" class="f">s</text></symbol><symbol id="11"><text y="1.67" class="f">caling</text><text x="7.014" y="1.67" class="f">from</text><text x="12.024" y="1.67" class="f">zero,</text><text x="18.036" y="1.67" class="f">causing</text><text x="26.052" y="1.67" class="f">cold-start</text><text x="37.074" y="1.67" class="f">latency</text></symbol><symbol id="12"><text x="48.096" y="1.67" class="f">Suggestion:</text><text x="60.12" y="1.67" class="f">Set</text><text x="64.128" y="1.67" class="f">minReplicas</text><text x="76.152" y="1.67" class="f">to</text><text x="79.158" y="1.67" class="f">at</text><text x="82.164" y="1.67" class="f">least</text><text x="88.176" y="1.67" class="f">1,</text><text x="91.182" y="1.67" class="f">or</text><text x="94.188" y="1.67" class="f">add</text><text x="98.196" y="1.67" class="f">re</text></symbol><symbol id="13"><text y="1.67" class="f">adiness</text><text x="8.016" y="1.67" class="f">checks</text><text x="15.03" y="1.67" class="f">and</text><text x="19.038" y="1.67" class="f">pre-warming</text></symbol><symbol id="14"><text x="32.064" y="1.67" class="f">[WARNING]</text><text x="42.084" y="1.67" class="f">No</text><text x="45.09" y="1.67" class="f">scale-down</text><text x="56.112" y="1.67" class="f">behavior</text><text x="65.13" y="1.67" class="f">policy</text><text x="72.144" y="1.67" class="f">configured;</text><text x="84.168" y="1.67" class="f">defaults</text><text x="93.186" y="1.67" class="f">may</text><text x="97.194" y="1.67" class="f">cau</text></symbol><symbol id="15"><text y="1.67" class="f">se</text><text x="3.006" y="1.67" class="f">rapid</text><text x="9.018" y="1.67" class="f">scale-down</text></symbol><symbol id="16"><text x="23.046" y="1.67" class="f">Impact:</text><text x="31.062" y="1.67" class="f">Default</text><text x="39.078" y="1.67" class="f">behavior</text><text x="48.096" y="1.67" class="f">allows</text><text x="55.11" y="1.67" class="f">rapid</text><text x="61.122" y="1.67" class="f">pod</text><text x="65.13" y="1.67" class="f">termination</text></symbol><symbol id="17"><text x="80.16" y="1.67" class="f">Suggestion:</text><text x="92.184" y="1.67" class="f">Add</text><text x="96.192" y="1.67" class="f">spec</text></symbol><symbol id="18"><text y="1.67" class="f">.behavior.scaleDown</text><text x="20.04" y="1.67" class="f">with</text><text x="25.05" y="1.67" class="f">stabilizationWindowSeconds:</text><text x="53.106" y="1.67" class="f">300</text></symbol><symbol id="19"><text x="58.116" y="1.67" class="f">[WARNING]</text><text x="68.136" y="1.67" class="f">Target</text><text x="75.15" y="1.67" class="f">CPU</text><text x="79.158" y="1.67" class="f">utilization</text><text x="91.182" y="1.67" class="f">(95%)</text><text x="97.194" y="1.67" class="f">is</text></symbol><symbol id="20"><text y="1.67" class="f">above</text><text x="6.012" y="1.67" class="f">recommended</text><text x="18.036" y="1.67" class="f">maximum</text><text x="26.052" y="1.67" class="f">(85%)</text></symbol><symbol id="21"><text x="35.07" y="1.67" class="f">Impact:</text><text x="43.086" y="1.67" class="f">Leaves</text><text x="50.1" y="1.67" class="f">very</text><text x="55.11" y="1.67" class="f">little</text><text x="62.124" y="1.67" class="f">headroom</text><text x="71.142" y="1.67" class="f">before</text><text x="78.156" y="1.67" class="f">saturation</text></symbol><symbol id="22"><text x="92.184" y="1.67" class="f">Suggesti</text></symbol><symbol id="23"><text y="1.67" class="f">on:</text><text x="4.008" y="1.67" class="f">Consider</text><text x="13.026" y="1.67" class="f">lowering</text><text x="22.044" y="1.67" class="f">targetUtilization</text><text x="40.08" y="1.67" class="f">to</text><text x="43.086" y="1.67" class="f">80-85%</text><text x="50.1" y="1.67" class="f">for</text><text x="54.108" y="1.67" class="f">safety</text><text x="61.122" y="1.67" class="f">margin</text></symbol><symbol id="a"><path fill="transparent" d="M0 0h100v30H0z"/></symbol></defs><path class="a" d="M0 0h100v65.13H0z"/><g style="animation-duration:.7s;animation-iteration-count:infinite;animation-name:h;animation-timing-function:steps(1,end)"><svg width="800"><svg><use xlink:href="#a"/></svg><svg x="100"><use xlink:href="#a"/><use xlink:href="#1"/></svg><svg x="200"><use xlink:href="#a"/><use xlink:href="#1"/><use xlink:href="#2" y="4.342"/><use xlink:href="#3" y="6.513"/><use xlink:href="#4" y="8.684"/><use xlink:href="#5" y="10.855"/><use xlink:href="#6" y="13.026"/></svg><svg x="300"><use xlink:href="#a"/><use xlink:href="#1"/><use xlink:href="#2" y="4.342"/><use xlink:href="#3" y="6.513"/><use xlink:href="#4" y="8.684"/><use xlink:href="#5" y="10.855"/><use xlink:href="#6" y="13.026"/><use xlink:href="#7" y="17.368"/></svg><svg x="400"><use xlink:href="#a"/><use xlink:href="#1"/><use xlink:href="#2" y="4.342"/><use xlink:href="#3" y="6.513"/><use xlink:href="#4" y="8.684"/><use xlink:href="#5" y="10.855"/><use xlink:href="#6" y="13.026"/><use xlink:href="#7" y="17.368"/><use xlink:href="#8" y="21.71"/><use xlink:href="#9" y="23.881"/><use xlink:href="#10" y="26.052"/><use xlink:href="#11" y="28.223"/><use xlink:href="#12" y="30.394"/><use xlink:href="#13" y="32.565"/></svg><svg x="500"><use xlink:href="#a"/><use xlink:href="#1"/><use xlink:href="#2" y="4.342"/><use xlink:href="#3" y="6.513"/><use xlink:href="#4" y="8.684"/><use xlink:href="#5" y="10.855"/><use xlink:href="#6" y="13.026"/><use xlink:href="#7" y="17.368"/><use xlink:href="#8" y="21.71"/><use xlink:href="#9" y="23.881"/><use xlink:href="#10" y="26.052"/><use xlink:href="#11" y="28.223"/><use xlink:href="#12" y="30.394"/><use xlink:href="#13" y="32.565"/><use xlink:href="#14" y="36.907"/><use xlink:href="#15" y="39.078"/><use xlink:href="#16" y="41.249"/><use xlink:href="#17" y="43.42"/><use xlink:href="#18" y="45.591"/></svg><svg x="600"><use xlink:href="#a"/><use xlink:href="#1"/><use xlink:href="#2" y="4.342"/><use xlink:href="#3" y="6.513"/><use xlink:href="#4" y="8.684"/><use xlink:href="#5" y="10.855"/><use xlink:href="#6" y="13.026"/><use xlink:href="#7" y="17.368"/><use xlink:href="#8" y="21.71"/><use xlink:href="#9" y="23.881"/><use xlink:href="#10" y="26.052"/><use xlink:href="#11" y="28.223"/><use xlink:href="#12" y="30.394"/><use xlink:href="#13" y="32.565"/><use xlink:href="#14" y="36.907"/><use xlink:href="#15" y="39.078"/><use xlink:href="#16" y="41.249"/><use xlink:href="#17" y="43.42"/><use xlink:href="#18" y="45.591"/><use xlink:href="#19" y="49.933"/><use xlink:href="#20" y="52.104"/><use xlink:href="#21" y="54.275"/><use xlink:href="#22" y="56.446"/><use xlink:href="#23" y="58.617"/></svg><svg x="700"><use xlink:href="#a"/><use xlink:href="#9"/><use xlink:href="#10" y="2.171"/><use xlink:href="#11" y="4.342"/><use xlink:href="#12" y="6.513"/><use xlink:href="#13" y="8.684"/><use xlink:href="#14" y="13.026"/><use xlink:href="#15" y="15.197"/><use xlink:href="#16" y="17.368"/><use xlink:href="#17" y="19.539"/><use xlink:href="#18" y="21.71"/><use xlink:href="#19" y="26.052"/><use xlink:href="#20" y="28.223"/><use xlink:href="#21" y="30.394"/><use xlink:href="#22" y="32.565"/><use xlink:href="#23" y="34.736"/><text x="67.134" y="40.748" class="f">Compliance</text><text x="78.156" y="40.748" class="f">Breakdown:</text><text x="90.18" y="42.919" class="f">✓</text><text x="92.184" y="42.919" class="f">Stabiliz</text><text y="45.09" class="f">ation</text><text x="6.012" y="45.09" class="f">window</text><text x="17.034" y="45.09" class="f">OK</text><text x="20.04" y="45.09" class="f">(300s</text><text x="26.052" y="45.09" class="f">configured)</text><text x="39.078" y="47.261" class="f">✗</text><text x="41.082" y="47.261" class="f">Replica</text><text x="49.098" y="47.261" class="f">range</text><text x="66.132" y="47.261" class="f">CRITICAL</text><text x="75.15" y="47.261" class="f">(minReplicas=0)</text><text x="92.184" y="49.432" class="f">✗</text><text x="94.188" y="49.432" class="f">Behavi</text><text y="51.603" class="f">or</text><text x="3.006" y="51.603" class="f">policy</text><text x="19.038" y="51.603" class="f">WARNING</text><text x="27.054" y="51.603" class="f">(no</text><text x="31.062" y="51.603" class="f">scaleDown</text><text x="41.082" y="51.603" class="f">policy)</text><text x="50.1" y="53.774" class="f">✓</text><text x="52.104" y="53.774" class="f">Metric</text><text x="59.118" y="53.774" class="f">coverage</text><text x="77.154" y="53.774" class="f">OK</text><text x="80.16" y="53.774" class="f">(2</text><text x="83.166" y="53.774" class="f">metrics:</text><text x="92.184" y="53.774" class="f">cpu,</text><text x="97.194" y="53.774" class="f">mem</text><text y="55.945" class="f">ory)</text><text x="6.012" y="58.116" class="f">✓</text><text x="8.016" y="58.116" class="f">Resource</text><text x="17.034" y="58.116" class="f">requests</text><text x="33.066" y="58.116" class="f">OK</text><text x="36.072" y="58.116" class="f">(all</text><text x="41.082" y="58.116" class="f">containers</text><text x="52.104" y="58.116" class="f">have</text><text x="57.114" y="58.116" class="f">requests)</text><text x="68.136" y="60.287" class="f">✓</text><text x="70.14" y="60.287" class="f">Target</text><text x="77.154" y="60.287" class="f">utilization</text><text x="95.19" y="60.287" class="f">WARNI</text><text y="62.458" class="f">NG</text><text x="3.006" y="62.458" class="f">(cpu=95%)</text></svg></svg></g></g></svg></svg>