<svg xmlns="http://www.w3.org/2000/svg" xmlns:xlink="http://www.w3.org/1999/xlink" width="1360" height="774.72"><rect width="1360" height="774.72" rx="5" ry="5" class="a"/><svg y="0%" x="0%"><circle cx="20" cy="20" r="6" fill="#ff5f58"/><circle cx="40" cy="20" r="6" fill="#ffbd2e"/><circle cx="60" cy="20" r="6" fill="#18c132"/></svg><svg height="694.72" viewBox="0 0 130 69.472" width="1300" x="25" xmlns="http://www.w3.org/2000/svg" xmlns:xlink="http://www.w3.org/1999/xlink" y="60"><style>@keyframes h{0%{transform:translateX(0)}11.1%{transform:translateX(-130px)}22.2%{transform:translateX(-260px)}33.3%{transform:translateX(-390px)}44.4%{transform:translateX(-520px)}55.6%{transform:translateX(-650px)}66.7%{transform:translateX(-780px)}77.8%{transform:translateX(-910px)}88.9%{transform:translateX(-1040px)}to{transform:translateX(-1170px)}}.a{fill:#282d35}.f{fill:#b9c0cb;white-space:pre}</style><g font-family="Monaco,Consolas,Menlo,'Bitstream Vera Sans Mono','Powerline Symbols',monospace" font-size="1.67"><defs><symbol id="1"><text y="1.67" class="f">$</text><text x="2.004" y="1.67" class="f">kubectl</text><text x="10.02" y="1.67" class="f">hpa</text><text x="14.028" y="1.67" class="f">status</text><text x="21.042" y="1.67" class="f">scan</text></symbol><symbol id="2"><text x="25.05" y="1.67" class="f">Scanning</text><text x="34.068" y="1.67" class="f">HPAs</text><text x="39.078" y="1.67" class="f">across</text><text x="46.092" y="1.67" class="f">all</text><text x="50.1" y="1.67" class="f">namespaces...</text></symbol><symbol id="3"><text x="63.126" y="1.67" class="f">NAMESPACE</text><text x="84.168" y="1.67" class="f">NAME</text><text x="117.234" y="1.67" class="f">TARGET</text></symbol><symbol id="4"><text x="16.032" y="1.67" class="f">CURRENT</text><text x="25.05" y="1.67" class="f">DESIRED</text><text x="34.068" y="1.67" class="f">HEALTH</text><text x="54.108" y="1.67" class="f">SCORE</text><text x="63.126" y="1.67" class="f">ISSUE</text><text x="96.192" y="1.67" class="f">SUMMARY</text></symbol><symbol id="5"><text x="103.206" y="1.67" class="f">default</text><text x="124.248" y="1.67" class="f">web</text></symbol><symbol id="6"><text x="27.054" y="1.67" class="f">Deployment/web</text><text x="56.112" y="1.67" class="f">3</text><text x="65.13" y="1.67" class="f">5</text><text x="74.148" y="1.67" class="f">🟢</text><text x="77.154" y="1.67" class="f">Healthy</text><text x="94.188" y="1.67" class="f">100</text></symbol><symbol id="7"><text x="6.012" y="1.67" class="f">HPA</text><text x="10.02" y="1.67" class="f">currently</text><text x="20.04" y="1.67" class="f">wants</text><text x="26.052" y="1.67" class="f">to</text><text x="29.058" y="1.67" class="f">scale</text><text x="35.07" y="1.67" class="f">up.</text></symbol><symbol id="8"><text x="38.076" y="1.67" class="f">default</text><text x="59.118" y="1.67" class="f">api</text><text x="92.184" y="1.67" class="f">Deployment/api</text><text x="121.242" y="1.67" class="f">10</text></symbol><symbol id="9"><text y="1.67" class="f">10</text><text x="9.018" y="1.67" class="f">🔴</text><text x="12.024" y="1.67" class="f">ScalingLimited</text><text x="29.058" y="1.67" class="f">75</text><text x="38.076" y="1.67" class="f">LIMITED:</text><text x="47.094" y="1.67" class="f">TooManyReplicas</text><text x="71.142" y="1.67" class="f">HPA</text><text x="75.15" y="1.67" class="f">is</text><text x="78.156" y="1.67" class="f">at</text><text x="81.162" y="1.67" class="f">maxReplicas.</text></symbol><symbol id="10"><text x="93.186" y="1.67" class="f">payments</text><text x="114.228" y="1.67" class="f">worker</text></symbol><symbol id="11"><text x="17.034" y="1.67" class="f">Deployment/worker</text><text x="46.092" y="1.67" class="f">2</text><text x="55.11" y="1.67" class="f">0</text><text x="64.128" y="1.67" class="f">🔴</text><text x="67.134" y="1.67" class="f">ERROR</text><text x="84.168" y="1.67" class="f">55</text><text x="93.186" y="1.67" class="f">ERROR:</text><text x="100.2" y="1.67" class="f">FailedGetResourceMetric</text><text x="126.252" y="1.67" class="f">HPA</text></symbol><symbol id="12"><text y="1.67" class="f">cannot</text><text x="7.014" y="1.67" class="f">currently</text><text x="17.034" y="1.67" class="f">compute</text><text x="25.05" y="1.67" class="f">a</text><text x="27.054" y="1.67" class="f">scaling</text><text x="35.07" y="1.67" class="f">recommendation</text><text x="50.1" y="1.67" class="f">from</text><text x="55.11" y="1.67" class="f">metrics.</text></symbol><symbol id="13"><text x="63.126" y="1.67" class="f">monitoring</text><text x="84.168" y="1.67" class="f">prometheus</text><text x="117.234" y="1.67" class="f">StatefulSet/p</text></symbol><symbol id="14"><text y="1.67" class="f">rometheus</text><text x="16.032" y="1.67" class="f">3</text><text x="25.05" y="1.67" class="f">3</text><text x="34.068" y="1.67" class="f">🟡</text><text x="37.074" y="1.67" class="f">STABILIZED</text><text x="53.106" y="1.67" class="f">90</text><text x="62.124" y="1.67" class="f">STABILIZED:</text><text x="74.148" y="1.67" class="f">ScaleDown</text><text x="95.19" y="1.67" class="f">Scale-down</text><text x="106.212" y="1.67" class="f">is</text><text x="109.218" y="1.67" class="f">suppressed</text><text x="120.24" y="1.67" class="f">by</text><text x="123.246" y="1.67" class="f">stabili</text></symbol><symbol id="15"><text y="1.67" class="f">zation</text><text x="7.014" y="1.67" class="f">window.</text></symbol><symbol id="16"><text x="14.028" y="1.67" class="f">Scan</text><text x="19.038" y="1.67" class="f">Results:</text><text x="28.056" y="1.67" class="f">4</text><text x="30.06" y="1.67" class="f">HPAs</text><text x="35.07" y="1.67" class="f">found</text></symbol><symbol id="17"><text x="42.084" y="1.67" class="f">🟢</text><text x="45.09" y="1.67" class="f">Healthy:</text><text x="60.12" y="1.67" class="f">1</text></symbol><symbol id="18"><text x="63.126" y="1.67" class="f">🟡</text><text x="66.132" y="1.67" class="f">Stabilized:</text><text x="81.162" y="1.67" class="f">1</text></symbol><symbol id="19"><text x="84.168" y="1.67" class="f">🔴</text><text x="87.174" y="1.67" class="f">Limited:</text><text x="102.204" y="1.67" class="f">1</text></symbol><symbol id="20"><text x="105.21" y="1.67" class="f">🔴</text><text x="108.216" y="1.67" class="f">Error:</text><text x="123.246" y="1.67" class="f">1</text></symbol><symbol id="a"><path fill="transparent" d="M0 0h130v32H0z"/></symbol></defs><path class="a" d="M0 0h130v69.472H0z"/><g style="animation-duration:.9s;animation-iteration-count:infinite;animation-name:h;animation-timing-function:steps(1,end)"><svg width="1300"><svg><use xlink:href="#a"/></svg><svg x="130"><use xlink:href="#a"/><use xlink:href="#1"/></svg><svg x="260"><use xlink:href="#a"/><use xlink:href="#1"/><use xlink:href="#2" y="2.171"/></svg><svg x="390"><use xlink:href="#a"/><use xlink:href="#1"/><use xlink:href="#2" y="2.171"/><use xlink:href="#3" y="6.513"/><use xlink:href="#4" y="8.684"/></svg><svg x="520"><use xlink:href="#a"/><use xlink:href="#1"/><use xlink:href="#2" y="2.171"/><use xlink:href="#3" y="6.513"/><use xlink:href="#4" y="8.684"/><use xlink:href="#5" y="10.855"/><use xlink:href="#6" y="13.026"/><use xlink:href="#7" y="15.197"/></svg><svg x="650"><use xlink:href="#a"/><use xlink:href="#1"/><use xlink:href="#2" y="2.171"/><use xlink:href="#3" y="6.513"/><use xlink:href="#4" y="8.684"/><use xlink:href="#5" y="10.855"/><use xlink:href="#6" y="13.026"/><use xlink:href="#7" y="15.197"/><use xlink:href="#8" y="17.368"/><use xlink:href="#9" y="19.539"/></svg><svg x="780"><use xlink:href="#a"/><use xlink:href="#1"/><use xlink:href="#2" y="2.171"/><use xlink:href="#3" y="6.513"/><use xlink:href="#4" y="8.684"/><use xlink:href="#5" y="10.855"/><use xlink:href="#6" y="13.026"/><use xlink:href="#7" y="15.197"/><use xlink:href="#8" y="17.368"/><use xlink:href="#9" y="19.539"/><use xlink:href="#10" y="21.71"/><use xlink:href="#11" y="23.881"/><use xlink:href="#12" y="26.052"/></svg><svg x="910"><use xlink:href="#a"/><use xlink:href="#1"/><use xlink:href="#2" y="2.171"/><use xlink:href="#3" y="6.513"/><use xlink:href="#4" y="8.684"/><use xlink:href="#5" y="10.855"/><use xlink:href="#6" y="13.026"/><use xlink:href="#7" y="15.197"/><use xlink:href="#8" y="17.368"/><use xlink:href="#9" y="19.539"/><use xlink:href="#10" y="21.71"/><use xlink:href="#11" y="23.881"/><use xlink:href="#12" y="26.052"/><use xlink:href="#13" y="28.223"/><use xlink:href="#14" y="30.394"/><use xlink:href="#15" y="32.565"/></svg><svg x="1040"><use xlink:href="#a"/><use xlink:href="#1"/><use xlink:href="#2" y="2.171"/><use xlink:href="#3" y="6.513"/><use xlink:href="#4" y="8.684"/><use xlink:href="#5" y="10.855"/><use xlink:href="#6" y="13.026"/><use xlink:href="#7" y="15.197"/><use xlink:href="#8" y="17.368"/><use xlink:href="#9" y="19.539"/><use xlink:href="#10" y="21.71"/><use xlink:href="#11" y="23.881"/><use xlink:href="#12" y="26.052"/><use xlink:href="#13" y="28.223"/><use xlink:href="#14" y="30.394"/><use xlink:href="#15" y="32.565"/><use xlink:href="#16" y="36.907"/><use xlink:href="#17" y="39.078"/><use xlink:href="#18" y="41.249"/><use xlink:href="#19" y="43.42"/><use xlink:href="#20" y="45.591"/></svg><svg x="1170"><use xlink:href="#a"/><use xlink:href="#1"/><use xlink:href="#2" y="2.171"/><use xlink:href="#3" y="6.513"/><use xlink:href="#4" y="8.684"/><use xlink:href="#5" y="10.855"/><use xlink:href="#6" y="13.026"/><use xlink:href="#7" y="15.197"/><use xlink:href="#8" y="17.368"/><use xlink:href="#9" y="19.539"/><use xlink:href="#10" y="21.71"/><use xlink:href="#11" y="23.881"/><use xlink:href="#12" y="26.052"/><use xlink:href="#13" y="28.223"/><use xlink:href="#14" y="30.394"/><use xlink:href="#15" y="32.565"/><use xlink:href="#16" y="36.907"/><use xlink:href="#17" y="39.078"/><use xlink:href="#18" y="41.249"/><use xlink:href="#19" y="43.42"/><use xlink:href="#20" y="45.591"/><text x="124.248" y="51.603" class="f">Top</text><text x="128.256" y="51.603" class="f">is</text><text y="53.774" class="f">sues:</text><text x="7.014" y="55.945" class="f">1.</text><text x="10.02" y="55.945" class="f">[ERROR]</text><text x="21.042" y="55.945" class="f">payments/worker</text><text x="37.074" y="55.945" class="f">—</text><text x="39.078" y="55.945" class="f">Metrics</text><text x="47.094" y="55.945" class="f">unavailable,</text><text x="60.12" y="55.945" class="f">check</text><text x="66.132" y="55.945" class="f">metrics-server</text><text x="82.164" y="58.116" class="f">2.</text><text x="85.17" y="58.116" class="f">[LIMITED]</text><text x="96.192" y="58.116" class="f">default/api</text><text x="108.216" y="58.116" class="f">—</text><text x="110.22" y="58.116" class="f">Capped</text><text x="117.234" y="58.116" class="f">at</text><text x="120.24" y="58.116" class="f">maxReplica</text><text y="60.287" class="f">s=10,</text><text x="6.012" y="60.287" class="f">consider</text><text x="15.03" y="60.287" class="f">raising</text></svg></svg></g></g></svg></svg>