<svg xmlns="http://www.w3.org/2000/svg" xmlns:xlink="http://www.w3.org/1999/xlink" width="1110" height="687.88"><rect width="1110" height="687.88" rx="5" ry="5" class="a"/><svg y="0%" x="0%"><circle cx="20" cy="20" r="6" fill="#ff5f58"/><circle cx="40" cy="20" r="6" fill="#ffbd2e"/><circle cx="60" cy="20" r="6" fill="#18c132"/></svg><svg height="607.88" viewBox="0 0 105 60.788" width="1050" x="25" xmlns="http://www.w3.org/2000/svg" xmlns:xlink="http://www.w3.org/1999/xlink" y="60"><style>@keyframes h{0%{transform:translateX(0)}76.9%{transform:translateX(-210px)}84.6%{transform:translateX(-315px)}92.3%{transform:translateX(-420px)}to{transform:translateX(-525px)}}.a{fill:#282d35}.f{fill:#b9c0cb;white-space:pre}</style><g font-family="Monaco,Consolas,Menlo,'Bitstream Vera Sans Mono','Powerline Symbols',monospace" font-size="1.67"><defs><symbol id="1"><text x="1.002" y="1.67" class="f">(unchanged)</text></symbol><symbol id="2"><text x="12.024" y="1.67" class="f">Interpretation:</text></symbol><symbol id="3"><text x="29.058" y="1.67" class="f">-</text><text x="31.062" y="1.67" class="f">[confidence:</text><text x="44.088" y="1.67" class="f">high]</text><text x="50.1" y="1.67" class="f">With</text><text x="55.11" y="1.67" class="f">CPU</text><text x="59.118" y="1.67" class="f">at</text><text x="62.124" y="1.67" class="f">80%,</text><text x="67.134" y="1.67" class="f">the</text><text x="71.142" y="1.67" class="f">HPA</text><text x="75.15" y="1.67" class="f">would</text><text x="81.162" y="1.67" class="f">recommend</text><text x="91.182" y="1.67" class="f">scaling</text><text x="99.198" y="1.67" class="f">up</text><text x="102.204" y="1.67" class="f">to</text></symbol><symbol id="4"><text y="1.67" class="f">4</text><text x="2.004" y="1.67" class="f">replicas.</text></symbol><symbol id="5"><text x="13.026" y="1.67" class="f">-</text><text x="15.03" y="1.67" class="f">[confidence:</text><text x="28.056" y="1.67" class="f">medium]</text><text x="36.072" y="1.67" class="f">Based</text><text x="42.084" y="1.67" class="f">on</text><text x="45.09" y="1.67" class="f">the</text><text x="49.098" y="1.67" class="f">ratio</text><text x="55.11" y="1.67" class="f">1.333,</text><text x="62.124" y="1.67" class="f">the</text><text x="66.132" y="1.67" class="f">controller</text><text x="77.154" y="1.67" class="f">would</text><text x="83.166" y="1.67" class="f">compute</text><text x="91.182" y="1.67" class="f">~4</text><text x="94.188" y="1.67" class="f">desired</text><text x="102.204" y="1.67" class="f">rep</text></symbol><symbol id="6"><text y="1.67" class="f">licas.</text></symbol><symbol id="7"><text x="6.012" y="1.67" class="f">---</text></symbol><symbol id="8"><text x="9.018" y="1.67" class="f">$</text><text x="11.022" y="1.67" class="f">kubectl</text><text x="19.038" y="1.67" class="f">hpa</text><text x="23.046" y="1.67" class="f">status</text><text x="30.06" y="1.67" class="f">web</text><text x="34.068" y="1.67" class="f">--simulate-metric</text><text x="52.104" y="1.67" class="f">cpu=80%</text><text x="60.12" y="1.67" class="f">--simulate-metric</text><text x="78.156" y="1.67" class="f">memory=4Gi</text></symbol><symbol id="9"><text x="88.176" y="1.67" class="f">HPA</text><text x="92.184" y="1.67" class="f">default/web</text></symbol><symbol id="10"><text x="103.206" y="1.67" class="f">Ta</text></symbol><symbol id="11"><text y="1.67" class="f">rget:</text><text x="6.012" y="1.67" class="f">Deployment/web</text></symbol><symbol id="12"><text x="20.04" y="1.67" class="f">Replicas:</text><text x="30.06" y="1.67" class="f">current=3</text><text x="40.08" y="1.67" class="f">desired=3</text><text x="50.1" y="1.67" class="f">min=2</text><text x="56.112" y="1.67" class="f">max=10</text></symbol><symbol id="13"><text x="62.124" y="1.67" class="f">Health</text><text x="69.138" y="1.67" class="f">score:</text><text x="76.152" y="1.67" class="f">🟢</text><text x="79.158" y="1.67" class="f">Healthy</text><text x="87.174" y="1.67" class="f">100/100</text></symbol><symbol id="14"><text x="94.188" y="1.67" class="f">⚠</text><text x="96.192" y="1.67" class="f">Simulatio</text></symbol><symbol id="15"><text y="1.67" class="f">n</text><text x="2.004" y="1.67" class="f">mode:</text><text x="8.016" y="1.67" class="f">cpu</text><text x="12.024" y="1.67" class="f">overridden</text><text x="23.046" y="1.67" class="f">from</text><text x="28.056" y="1.67" class="f">45%</text><text x="32.064" y="1.67" class="f">to</text><text x="35.07" y="1.67" class="f">80%,</text><text x="40.08" y="1.67" class="f">memory</text><text x="47.094" y="1.67" class="f">overridden</text><text x="58.116" y="1.67" class="f">from</text><text x="63.126" y="1.67" class="f">2Gi</text><text x="67.134" y="1.67" class="f">to</text><text x="70.14" y="1.67" class="f">4Gi</text></symbol><symbol id="16"><text x="73.146" y="1.67" class="f">Simulated</text><text x="83.166" y="1.67" class="f">Metrics:</text></symbol><symbol id="17"><text x="93.186" y="1.67" class="f">-</text><text x="95.19" y="1.67" class="f">Resource</text><text x="104.208" y="1.67" class="f">c</text></symbol><symbol id="18"><text y="1.67" class="f">pu</text><text x="3.006" y="1.67" class="f">current=80%</text><text x="15.03" y="1.67" class="f">target=60%</text><text x="26.052" y="1.67" class="f">ratio=1.333</text><text x="38.076" y="1.67" class="f">note=&quot;simulated:</text><text x="55.11" y="1.67" class="f">above</text><text x="61.122" y="1.67" class="f">target&quot;</text></symbol><symbol id="19"><text x="70.14" y="1.67" class="f">-</text><text x="72.144" y="1.67" class="f">Resource</text><text x="81.162" y="1.67" class="f">memory</text><text x="88.176" y="1.67" class="f">current=4Gi</text><text x="100.2" y="1.67" class="f">targe</text></symbol><symbol id="20"><text y="1.67" class="f">t=2Gi</text><text x="6.012" y="1.67" class="f">ratio=2.000</text><text x="18.036" y="1.67" class="f">note=&quot;simulated:</text><text x="35.07" y="1.67" class="f">above</text><text x="41.082" y="1.67" class="f">target&quot;</text></symbol><symbol id="21"><text x="48.096" y="1.67" class="f">Simulated</text><text x="58.116" y="1.67" class="f">Result:</text></symbol><symbol id="22"><text x="67.134" y="1.67" class="f">Estimated</text><text x="77.154" y="1.67" class="f">desired</text><text x="85.17" y="1.67" class="f">replicas:</text><text x="95.19" y="1.67" class="f">6</text><text x="97.194" y="1.67" class="f">(was</text><text x="102.204" y="1.67" class="f">3)</text></symbol><symbol id="23"><text x="1.002" y="1.67" class="f">Direction:</text><text x="12.024" y="1.67" class="f">scale-up</text></symbol><symbol id="24"><text x="22.044" y="1.67" class="f">Health</text><text x="29.058" y="1.67" class="f">score:</text><text x="36.072" y="1.67" class="f">🟢</text><text x="39.078" y="1.67" class="f">Healthy</text><text x="47.094" y="1.67" class="f">100/100</text><text x="55.11" y="1.67" class="f">(unchanged)</text></symbol><symbol id="25"><text x="68.136" y="1.67" class="f">Estimated</text><text x="78.156" y="1.67" class="f">winner</text><text x="85.17" y="1.67" class="f">metric:</text><text x="93.186" y="1.67" class="f">memory</text><text x="100.2" y="1.67" class="f">(high</text></symbol><symbol id="26"><text y="1.67" class="f">er</text><text x="3.006" y="1.67" class="f">ratio:</text><text x="10.02" y="1.67" class="f">2.000</text><text x="16.032" y="1.67" class="f">&gt;</text><text x="18.036" y="1.67" class="f">1.333)</text></symbol><symbol id="a"><path fill="transparent" d="M0 0h105v28H0z"/></symbol></defs><path class="a" d="M0 0h105v60.788H0z"/><g style="animation-duration:.12999999999999998s;animation-iteration-count:infinite;animation-name:h;animation-timing-function:steps(1,end)"><svg width="630"><svg><use xlink:href="#a"/></svg><svg x="105"><use xlink:href="#a"/><text y="1.67" class="f">$</text><text x="2.004" y="1.67" class="f">kubectl</text><text x="10.02" y="1.67" class="f">hpa</text><text x="14.028" y="1.67" class="f">status</text><text x="21.042" y="1.67" class="f">web</text><text x="25.05" y="1.67" class="f">--simulate-metric</text><text x="43.086" y="1.67" class="f">cpu=80%</text></svg><svg x="210"><use xlink:href="#a"/><text x="99.198" y="3.841" class="f">Simula</text><text y="6.012" class="f">ted</text><text x="4.008" y="6.012" class="f">Result:</text><text x="13.026" y="8.183" class="f">Estimated</text><text x="23.046" y="8.183" class="f">desired</text><text x="31.062" y="8.183" class="f">replicas:</text><text x="41.082" y="8.183" class="f">4</text><text x="43.086" y="8.183" class="f">(was</text><text x="48.096" y="8.183" class="f">3)</text><text x="52.104" y="10.354" class="f">Direction:</text><text x="63.126" y="10.354" class="f">scale-up</text><text x="73.146" y="12.525" class="f">Health</text><text x="80.16" y="12.525" class="f">score:</text><text x="87.174" y="12.525" class="f">🟢</text><text x="90.18" y="12.525" class="f">Healthy</text><text x="98.196" y="12.525" class="f">100/100</text><use xlink:href="#1" y="13.026"/><use xlink:href="#2" y="17.368"/><use xlink:href="#3" y="19.539"/><use xlink:href="#4" y="21.71"/><use xlink:href="#5" y="23.881"/><use xlink:href="#6" y="26.052"/><use xlink:href="#7" y="30.394"/><use xlink:href="#8" y="34.736"/><use xlink:href="#9" y="39.078"/><use xlink:href="#10" y="41.249"/><use xlink:href="#11" y="43.42"/><use xlink:href="#12" y="45.591"/><use xlink:href="#13" y="47.762"/><use xlink:href="#14" y="52.104"/><use xlink:href="#15" y="54.275"/></svg><svg x="315"><use xlink:href="#a"/><use xlink:href="#1"/><use xlink:href="#2" y="4.342"/><use xlink:href="#3" y="6.513"/><use xlink:href="#4" y="8.684"/><use xlink:href="#5" y="10.855"/><use xlink:href="#6" y="13.026"/><use xlink:href="#7" y="17.368"/><use xlink:href="#8" y="21.71"/><use xlink:href="#9" y="26.052"/><use xlink:href="#10" y="28.223"/><use xlink:href="#11" y="30.394"/><use xlink:href="#12" y="32.565"/><use xlink:href="#13" y="34.736"/><use xlink:href="#14" y="39.078"/><use xlink:href="#15" y="41.249"/><use xlink:href="#16" y="45.591"/><use xlink:href="#17" y="47.762"/><use xlink:href="#18" y="49.933"/><use xlink:href="#19" y="52.104"/><use xlink:href="#20" y="54.275"/></svg><svg x="420"><use xlink:href="#a"/><use xlink:href="#7"/><use xlink:href="#8" y="4.342"/><use xlink:href="#9" y="8.684"/><use xlink:href="#10" y="10.855"/><use xlink:href="#11" y="13.026"/><use xlink:href="#12" y="15.197"/><use xlink:href="#13" y="17.368"/><use xlink:href="#14" y="21.71"/><use xlink:href="#15" y="23.881"/><use xlink:href="#16" y="28.223"/><use xlink:href="#17" y="30.394"/><use xlink:href="#18" y="32.565"/><use xlink:href="#19" y="34.736"/><use xlink:href="#20" y="36.907"/><use xlink:href="#21" y="41.249"/><use xlink:href="#22" y="43.42"/><use xlink:href="#23" y="47.762"/><use xlink:href="#24" y="49.933"/><use xlink:href="#25" y="52.104"/><use xlink:href="#26" y="54.275"/></svg><svg x="525"><use xlink:href="#a"/><use xlink:href="#13"/><use xlink:href="#14" y="4.342"/><use xlink:href="#15" y="6.513"/><use xlink:href="#16" y="10.855"/><use xlink:href="#17" y="13.026"/><use xlink:href="#18" y="15.197"/><use xlink:href="#19" y="17.368"/><use xlink:href="#20" y="19.539"/><use xlink:href="#21" y="23.881"/><use xlink:href="#22" y="26.052"/><use xlink:href="#23" y="30.394"/><use xlink:href="#24" y="32.565"/><use xlink:href="#25" y="34.736"/><use xlink:href="#26" y="36.907"/><text x="24.048" y="42.919" class="f">Interpretation:</text><text x="41.082" y="45.09" class="f">-</text><text x="43.086" y="45.09" class="f">[confidence:</text><text x="56.112" y="45.09" class="f">medium]</text><text x="64.128" y="45.09" class="f">Memory</text><text x="71.142" y="45.09" class="f">(ratio</text><text x="78.156" y="45.09" class="f">2.000)</text><text x="85.17" y="45.09" class="f">would</text><text x="91.182" y="45.09" class="f">drive</text><text x="97.194" y="45.09" class="f">the</text><text x="101.202" y="45.09" class="f">scal</text><text y="47.261" class="f">ing</text><text x="4.008" y="47.261" class="f">decision</text><text x="13.026" y="47.261" class="f">over</text><text x="18.036" y="47.261" class="f">CPU</text><text x="22.044" y="47.261" class="f">(ratio</text><text x="29.058" y="47.261" class="f">1.333).</text><text x="38.076" y="49.432" class="f">-</text><text x="40.08" y="49.432" class="f">[confidence:</text><text x="53.106" y="49.432" class="f">low]</text><text x="58.116" y="49.432" class="f">Final</text><text x="64.128" y="49.432" class="f">replica</text><text x="72.144" y="49.432" class="f">count</text><text x="78.156" y="49.432" class="f">depends</text><text x="86.172" y="49.432" class="f">on</text><text x="89.178" y="49.432" class="f">the</text><text x="93.186" y="49.432" class="f">controller&apos;s</text><text x="1.002" y="51.603" class="f">internal</text><text x="10.02" y="51.603" class="f">rounding</text><text x="19.038" y="51.603" class="f">and</text><text x="23.046" y="51.603" class="f">select</text><text x="30.06" y="51.603" class="f">policy.</text><text x="37.074" y="55.945" class="f">All</text><text x="41.082" y="55.945" class="f">simulation</text><text x="52.104" y="55.945" class="f">is</text><text x="55.11" y="55.945" class="f">client-side</text><text x="67.134" y="55.945" class="f">only.</text><text x="73.146" y="55.945" class="f">No</text><text x="76.152" y="55.945" class="f">changes</text><text x="84.168" y="55.945" class="f">are</text><text x="88.176" y="55.945" class="f">sent</text><text x="93.186" y="55.945" class="f">to</text><text x="96.192" y="55.945" class="f">the</text><text x="100.2" y="55.945" class="f">Kuber</text><text y="58.116" class="f">netes</text><text x="6.012" y="58.116" class="f">API</text><text x="10.02" y="58.116" class="f">server.</text></svg></svg></g></g></svg></svg>