<svg xmlns="http://www.w3.org/2000/svg" xmlns:xlink="http://www.w3.org/1999/xlink" width="1060" height="644.46"><rect width="1060" height="644.46" rx="5" ry="5" class="a"/><svg y="0%" x="0%"><circle cx="20" cy="20" r="6" fill="#ff5f58"/><circle cx="40" cy="20" r="6" fill="#ffbd2e"/><circle cx="60" cy="20" r="6" fill="#18c132"/></svg><svg height="564.46" viewBox="0 0 100 56.446" width="1000" x="25" xmlns="http://www.w3.org/2000/svg" xmlns:xlink="http://www.w3.org/1999/xlink" y="60"><style>@keyframes h{0%{transform:translateX(0)}90.9%{transform:translateX(-200px)}to{transform:translateX(-300px)}}.a{fill:#282d35}.f{fill:#b9c0cb;white-space:pre}</style><g font-family="Monaco,Consolas,Menlo,'Bitstream Vera Sans Mono','Powerline Symbols',monospace" font-size="1.67"><defs><symbol id="1"><text y="1.67" class="f">$</text><text x="2.004" y="1.67" class="f">kubectl</text><text x="10.02" y="1.67" class="f">hpa</text><text x="14.028" y="1.67" class="f">status</text><text x="21.042" y="1.67" class="f">timeline</text><text x="30.06" y="1.67" class="f">web</text><text x="34.068" y="1.67" class="f">-n</text><text x="37.074" y="1.67" class="f">production</text><text x="48.096" y="1.67" class="f">--since=30m</text></symbol><symbol id="2"><text x="59.118" y="1.67" class="f">HPA</text><text x="63.126" y="1.67" class="f">Scaling</text><text x="71.142" y="1.67" class="f">Timeline:</text><text x="81.162" y="1.67" class="f">web</text><text x="85.17" y="1.67" class="f">(production)</text><text x="99.198" y="1.67" class="f">s</text></symbol><symbol id="3"><text y="1.67" class="f">ince</text><text x="5.01" y="1.67" class="f">30m</text><text x="9.018" y="1.67" class="f">ago</text></symbol><symbol id="4"><text x="12.024" y="1.67" class="f">21:05:00</text><text x="22.044" y="1.67" class="f">CPU</text><text x="26.052" y="1.67" class="f">92%</text><text x="30.06" y="1.67" class="f">&gt;</text><text x="32.064" y="1.67" class="f">target</text><text x="39.078" y="1.67" class="f">60%</text><text x="49.098" y="1.67" class="f">desired</text><text x="57.114" y="1.67" class="f">3</text><text x="59.118" y="1.67" class="f">-&gt;</text><text x="62.124" y="1.67" class="f">5</text><text x="69.138" y="1.67" class="f">SuccessfulRescale</text></symbol><symbol id="5"><text x="86.172" y="1.67" class="f">21:06:00</text><text x="96.192" y="1.67" class="f">Scal</text></symbol><symbol id="6"><text y="1.67" class="f">ingLimited=True</text><text x="24.048" y="1.67" class="f">capped</text><text x="31.062" y="1.67" class="f">by</text><text x="34.068" y="1.67" class="f">maxReplicas=5</text></symbol><symbol id="7"><text x="47.094" y="1.67" class="f">21:08:30</text><text x="57.114" y="1.67" class="f">CPU</text><text x="61.122" y="1.67" class="f">78%</text><text x="65.13" y="1.67" class="f">&gt;</text><text x="67.134" y="1.67" class="f">target</text><text x="74.148" y="1.67" class="f">60%</text><text x="85.17" y="1.67" class="f">desired</text><text x="93.186" y="1.67" class="f">remains</text></symbol><symbol id="8"><text x="1.002" y="1.67" class="f">5</text><text x="4.008" y="1.67" class="f">within</text><text x="11.022" y="1.67" class="f">tolerance</text></symbol><symbol id="9"><text x="20.04" y="1.67" class="f">21:10:00</text><text x="30.06" y="1.67" class="f">FailedGetResourceMetric</text><text x="58.116" y="1.67" class="f">metrics</text><text x="66.132" y="1.67" class="f">unavailable</text></symbol><symbol id="10"><text x="77.154" y="1.67" class="f">21:12:00</text><text x="87.174" y="1.67" class="f">CPU</text><text x="91.182" y="1.67" class="f">metrics</text><text x="99.198" y="1.67" class="f">r</text></symbol><symbol id="11"><text y="1.67" class="f">estored</text><text x="16.032" y="1.67" class="f">desired</text><text x="24.048" y="1.67" class="f">remains</text><text x="32.064" y="1.67" class="f">5</text></symbol><symbol id="12"><text x="33.066" y="1.67" class="f">21:15:00</text><text x="43.086" y="1.67" class="f">ScaleDownStabilized</text><text x="72.144" y="1.67" class="f">scale-down</text><text x="83.166" y="1.67" class="f">suppressed,</text><text x="95.19" y="1.67" class="f">~180s</text></symbol><symbol id="13"><text x="1.002" y="1.67" class="f">remaining</text></symbol><symbol id="14"><text x="10.02" y="1.67" class="f">21:18:00</text><text x="20.04" y="1.67" class="f">CPU</text><text x="24.048" y="1.67" class="f">55%</text><text x="28.056" y="1.67" class="f">&lt;</text><text x="30.06" y="1.67" class="f">target</text><text x="37.074" y="1.67" class="f">60%</text><text x="48.096" y="1.67" class="f">desired</text><text x="56.112" y="1.67" class="f">5</text><text x="58.116" y="1.67" class="f">-&gt;</text><text x="61.122" y="1.67" class="f">3</text><text x="68.136" y="1.67" class="f">ScaleDownStabilized</text><text x="88.176" y="1.67" class="f">(suppressed)</text></symbol><symbol id="15"><text x="99.198" y="1.67" class="f">2</text></symbol><symbol id="16"><text y="1.67" class="f">1:21:00</text><text x="9.018" y="1.67" class="f">CPU</text><text x="13.026" y="1.67" class="f">48%</text><text x="17.034" y="1.67" class="f">&lt;</text><text x="19.038" y="1.67" class="f">target</text><text x="26.052" y="1.67" class="f">60%</text><text x="37.074" y="1.67" class="f">desired</text><text x="45.09" y="1.67" class="f">5</text><text x="47.094" y="1.67" class="f">-&gt;</text><text x="50.1" y="1.67" class="f">3</text><text x="57.114" y="1.67" class="f">SuccessfulRescale</text></symbol><symbol id="a"><path fill="transparent" d="M0 0h100v26H0z"/></symbol></defs><path class="a" d="M0 0h100v56.446H0z"/><g style="animation-duration:.10999999999999997s;animation-iteration-count:infinite;animation-name:h;animation-timing-function:steps(1,end)"><svg width="400"><svg><use xlink:href="#a"/></svg><svg x="100"><use xlink:href="#a"/><use xlink:href="#1"/></svg><svg x="200"><use xlink:href="#a"/><use xlink:href="#1"/><use xlink:href="#2" y="4.342"/><use xlink:href="#3" y="6.513"/><use xlink:href="#4" y="10.855"/><use xlink:href="#5" y="13.026"/><use xlink:href="#6" y="15.197"/><use xlink:href="#7" y="17.368"/><use xlink:href="#8" y="19.539"/><use xlink:href="#9" y="21.71"/><use xlink:href="#10" y="23.881"/><use xlink:href="#11" y="26.052"/><use xlink:href="#12" y="28.223"/><use xlink:href="#13" y="30.394"/><use xlink:href="#14" y="32.565"/><use xlink:href="#15" y="34.736"/><use xlink:href="#16" y="36.907"/></svg><svg x="300"><use xlink:href="#a"/><use xlink:href="#1"/><use xlink:href="#2" y="4.342"/><use xlink:href="#3" y="6.513"/><use xlink:href="#4" y="10.855"/><use xlink:href="#5" y="13.026"/><use xlink:href="#6" y="15.197"/><use xlink:href="#7" y="17.368"/><use xlink:href="#8" y="19.539"/><use xlink:href="#9" y="21.71"/><use xlink:href="#10" y="23.881"/><use xlink:href="#11" y="26.052"/><use xlink:href="#12" y="28.223"/><use xlink:href="#13" y="30.394"/><use xlink:href="#14" y="32.565"/><use xlink:href="#15" y="34.736"/><use xlink:href="#16" y="36.907"/><text x="74.148" y="42.919" class="f">Note:</text><text x="80.16" y="42.919" class="f">Best-effort</text><text x="92.184" y="42.919" class="f">reconstr</text><text y="45.09" class="f">uction</text><text x="7.014" y="45.09" class="f">from</text><text x="12.024" y="45.09" class="f">Kubernetes</text><text x="23.046" y="45.09" class="f">events</text><text x="30.06" y="45.09" class="f">and</text><text x="34.068" y="45.09" class="f">current</text><text x="42.084" y="45.09" class="f">HPA</text><text x="46.092" y="45.09" class="f">status.</text><text x="53.106" y="47.261" class="f">Events</text><text x="60.12" y="47.261" class="f">typically</text><text x="70.14" y="47.261" class="f">expire</text><text x="77.154" y="47.261" class="f">after</text><text x="83.166" y="47.261" class="f">~1</text><text x="86.172" y="47.261" class="f">hour;</text><text x="92.184" y="47.261" class="f">older</text><text x="98.196" y="47.261" class="f">en</text><text y="49.432" class="f">tries</text><text x="6.012" y="49.432" class="f">may</text><text x="10.02" y="49.432" class="f">be</text><text x="13.026" y="49.432" class="f">incomplete.</text></svg></svg></g></g></svg></svg>